# Blender v2.79 (sub 0) OBJ File: ''
# www.blender.org
mtllib Bush.mtl
o Bush_meshId0_name
v -129.498001 -18.536963 40.550762
v -140.349991 26.725960 -48.595638
v -132.556000 21.200251 35.521866
v -129.197006 -16.410769 -104.243637
v -91.064201 -43.607536 -126.880150
v -87.568901 73.649452 17.183964
v -80.184296 85.808975 -70.871826
v -108.833008 36.460564 -130.063141
v -1.396480 89.047974 -126.202835
v -75.841202 -4.908389 -173.719254
v -91.064201 -43.607536 -126.880150
v -35.054398 -37.140934 -169.794250
v -44.976799 40.730473 -165.968231
v 46.446800 -1.012239 -178.021255
v 40.317898 51.977375 -155.252243
v 90.238396 -39.068733 -143.715240
v -29.535900 103.552963 0.877367
v -80.184296 85.808975 -70.871826
v -87.568901 73.649452 17.183964
v 41.358200 103.949966 -43.730179
v 110.321007 65.307655 -67.034737
v 110.321007 65.307655 -67.034737
v 73.226097 78.193253 28.601271
v -28.925699 59.862747 73.252777
v 122.849998 10.704345 50.786659
v 90.445496 0.957247 83.514763
v -132.556000 21.200251 35.521866
v -55.742798 -3.756363 95.544769
v -129.498001 -18.536963 40.550762
v 64.492401 -34.492855 77.399757
v -63.210400 -43.419453 32.179764
v 73.226097 78.193253 28.601271
v 122.849998 10.704345 50.786659
v 148.433014 -13.431941 -57.051937
v 110.610001 18.411558 -129.921844
v 112.169006 -52.725140 -18.136240
v 64.492401 -34.492855 77.399757
v 90.445496 0.957247 83.514763
v 112.169006 -52.725140 -18.136240
v 37.624901 -56.375942 -45.109245
v -63.210400 -43.419453 32.179764
v 64.492401 -34.492855 77.399757
v -129.498001 -18.536963 40.550762
vt -2.905770 2.109550
vt -2.150390 2.071940
vt -2.949270 2.500620
vt -1.641420 2.520150
vt -1.208470 2.869350
vt -2.842450 1.384560
vt -1.828160 1.239720
vt -1.351200 1.974920
vt -0.365089 1.105870
vt -0.885399 2.288830
vt -1.079660 2.829580
vt -0.529472 2.570710
vt -0.690914 1.842990
vt 0.077990 2.196460
vt 0.028193 1.654010
vt 0.533498 2.488480
vt -1.206160 0.512378
vt -0.528799 -0.308857
vt -1.033660 -0.825180
vt 0.150995 0.220851
vt 1.323330 1.345740
vt 0.869437 0.739865
vt 0.570606 -0.541338
vt -0.506773 -1.149820
vt 2.433443 1.105756
vt 2.773011 2.294267
vt 2.359020 2.043514
vt 0.741567 -1.731140
vt -1.328710 -1.589460
vt -0.585004 -1.855180
vt -1.282850 -1.988860
vt 0.543393 -2.147680
vt -0.925557 -2.373610
vt 2.357500 2.048910
vt 2.432970 1.110700
vt 1.489970 2.263850
vt 0.737179 1.954010
vt 1.861850 2.751850
vt 2.774700 2.300880
vt 2.726600 2.643600
vt 0.303813 3.633730
vt 0.810666 3.941330
vt -0.795428 4.547620
vt 0.289210 4.822420
vt -1.322300 3.783200
vn -0.9940 -0.0654 0.0878
vn -0.9699 -0.2435 -0.0056
vn -0.5858 -0.8104 -0.0131
vn -0.7346 0.6692 0.1120
vn -0.6922 0.7205 0.0414
vn -0.7232 0.6608 -0.2008
vn -0.3712 0.7937 -0.4820
vn -0.9227 0.1923 -0.3340
vn -0.7938 0.0087 -0.6082
vn -0.6708 -0.4498 -0.5896
vn -0.4293 -0.6228 -0.6541
vn -0.3544 0.7637 -0.5395
vn -0.4618 0.4428 -0.7686
vn -0.0297 -0.1578 -0.9870
vn -0.0407 0.1940 -0.9802
vn 0.0621 0.4001 -0.9144
vn 0.1618 -0.5515 -0.8183
vn 0.0151 0.6272 -0.7787
vn -0.1407 0.9797 -0.1430
vn -0.4369 0.8953 0.0870
vn -0.0888 0.9872 -0.1323
vn 0.4042 0.8009 -0.4417
vn 0.3668 0.8635 -0.3462
vn 0.5080 0.8575 0.0815
vn 0.1625 0.9500 0.2667
vn -0.2828 0.8201 0.4974
vn 0.0718 0.8542 0.5150
vn 0.4892 0.5752 0.6556
vn 0.2287 0.5975 0.7686
vn -0.4621 0.6186 0.6355
vn 0.0684 0.3041 0.9502
vn -0.4500 0.4583 0.7665
vn -0.6038 0.0542 0.7953
vn 0.0872 -0.2310 0.9690
vn -0.2367 -0.8108 0.5354
vn -0.1319 -0.8332 0.5371
vn 0.7540 0.6229 0.2085
vn 0.8889 0.4444 0.1114
vn 0.5134 0.6891 -0.5115
vn 0.4722 0.3935 -0.7888
vn 0.8764 0.3880 -0.2853
vn 0.6041 -0.0229 -0.7966
vn 0.8406 -0.1749 -0.5127
vn 0.6198 -0.7612 -0.1910
vn 0.6627 -0.5691 0.4867
vn 0.8307 -0.4678 0.3018
vn 0.6662 -0.5973 0.4465
vn 0.0931 -0.9879 -0.1237
vn 0.0188 -0.9864 -0.1631
vn -0.0019 -0.9885 -0.1514
vn -0.0078 -0.9878 0.1554
vn 0.0019 -0.9821 0.1884
vn -0.1118 -0.9935 0.0207
vn -0.3440 -0.9370 0.0613
usemtl m0FurBase00_001
s off
f 3/1/1 2/2/1 1/3/1
f 1/3/2 2/2/2 4/4/2
f 5/5/3 1/3/3 4/4/3
f 6/6/4 2/2/4 3/1/4
f 7/7/5 2/2/5 6/6/5
f 7/7/6 8/8/6 2/2/6
f 8/8/7 7/7/7 9/9/7
f 2/2/8 8/8/8 4/4/8
f 4/4/9 8/8/9 10/10/9
f 4/4/10 10/10/10 11/11/10
f 10/10/11 12/12/11 11/11/11
f 8/8/12 9/9/12 13/13/12
f 8/8/13 13/13/13 10/10/13
f 10/10/14 14/14/14 12/12/14
f 10/10/15 13/13/15 14/14/15
f 13/13/16 15/15/16 14/14/16
f 14/14/17 16/16/17 12/12/17
f 9/9/18 15/15/18 13/13/18
f 18/17/19 17/18/19 9/9/19
f 18/17/20 19/19/20 17/18/20
f 17/18/21 20/20/21 9/9/21
f 15/15/22 9/9/22 21/21/22
f 9/9/23 20/20/23 22/22/23
f 20/20/24 23/23/24 22/22/24
f 20/20/25 17/18/25 23/23/25
f 19/19/26 24/24/26 17/18/26
f 24/24/27 23/23/27 17/18/27
f 23/25/28 26/26/28 25/27/28
f 24/24/29 26/28/29 23/23/29
f 27/29/30 24/24/30 19/19/30
f 28/30/31 26/28/31 24/24/31
f 27/29/32 28/30/32 24/24/32
f 27/29/33 29/31/33 28/30/33
f 26/28/34 28/30/34 30/32/34
f 29/31/35 31/33/35 28/30/35
f 28/30/36 31/33/36 30/32/36
f 33/34/37 21/21/37 32/35/37
f 21/21/38 33/34/38 34/36/38
f 35/37/39 15/15/39 21/21/39
f 15/15/40 35/37/40 14/14/40
f 35/37/41 21/21/41 34/36/41
f 14/14/42 35/37/42 16/16/42
f 35/37/43 34/36/43 16/16/43
f 34/36/44 36/38/44 16/16/44
f 33/34/45 38/39/45 37/40/45
f 34/36/46 33/34/46 36/38/46
f 33/34/47 37/40/47 36/38/47
f 40/41/48 16/16/48 39/42/48
f 12/12/49 16/16/49 40/41/49
f 12/12/50 40/41/50 11/11/50
f 40/41/51 39/42/51 41/43/51
f 39/42/52 42/44/52 41/43/52
f 11/11/53 40/41/53 41/43/53
f 11/11/54 41/43/54 43/45/54
